<svg id="visual" viewBox="0 0 900 600" width="900" height="600" xmlns="http://www.w3.org/2000/svg" xmlns:xlink="http://www.w3.org/1999/xlink" version="1.1"><rect x="0" y="0" width="900" height="600" fill="#001220"></rect><defs><linearGradient id="grad1_0" x1="33.3%" y1="0%" x2="100%" y2="100%"><stop offset="20%" stop-color="#001220" stop-opacity="1"></stop><stop offset="80%" stop-color="#001220" stop-opacity="1"></stop></linearGradient></defs><defs><linearGradient id="grad2_0" x1="0%" y1="0%" x2="66.7%" y2="100%"><stop offset="20%" stop-color="#001220" stop-opacity="1"></stop><stop offset="80%" stop-color="#001220" stop-opacity="1"></stop></linearGradient></defs><g transform="translate(900, 0)"><path d="M0 378.6C-39.1 370.6 -78.1 362.7 -112.5 346.2C-146.9 329.7 -176.6 304.6 -203.4 279.9C-230.2 255.3 -254.1 231.1 -282.3 205.1C-310.6 179.2 -343.3 151.5 -360.1 117C-376.8 82.5 -377.7 41.3 -378.6 0L0 0Z" fill="#FBAE3C"></path></g><g transform="translate(0, 600)"><path d="M0 -378.6C30.2 -343.5 60.3 -308.4 96.4 -296.7C132.5 -285 174.5 -296.7 208.1 -286.4C241.7 -276.1 266.9 -243.7 292.9 -212.8C318.9 -181.8 345.6 -152.2 360.1 -117C374.5 -81.8 376.5 -40.9 378.6 0L0 0Z" fill="#FBAE3C"></path></g></svg>